<?xml version="1.0" standalone="no"?><!DOCTYPE svg PUBLIC "-//W3C//DTD SVG 1.1//EN" "http://www.w3.org/Graphics/SVG/1.1/DTD/svg11.dtd"><svg t="1558149209113" class="icon" style="" viewBox="0 0 1024 1024" version="1.1" xmlns="http://www.w3.org/2000/svg" p-id="3593" xmlns:xlink="http://www.w3.org/1999/xlink" width="200" height="200"><defs><style type="text/css"></style></defs><path d="M0 64l0 896 1024 0L1024 64 0 64zM960 896 64 896 64 128l896 0L960 896zM896 192 128 192l0 640 768 0L896 192zM448 512l-64 0 0 64-64 0 0 64-64 0 0-64 64 0 0-64 64 0 0-64-64 0 0-64-64 0 0-64 64 0 0 64 64 0 0 64 64 0L448 512zM704 640l-192 0 0-64 192 0L704 640z" p-id="3594" fill="#93ADDB"></path></svg>