<?xml version="1.0" standalone="no"?><!DOCTYPE svg PUBLIC "-//W3C//DTD SVG 1.1//EN" "http://www.w3.org/Graphics/SVG/1.1/DTD/svg11.dtd"><svg t="1565600399514" class="icon" viewBox="0 0 1024 1024" version="1.1" xmlns="http://www.w3.org/2000/svg" p-id="2716" xmlns:xlink="http://www.w3.org/1999/xlink" width="200" height="200"><defs><style type="text/css"></style></defs><path d="M246.401388 802.460348l692.39558 0 0 46.057989-692.39558 0 0-46.057989Z" p-id="2717" fill="#707070"></path><path d="M246.401388 595.165118l692.39558 0 0 46.080501-692.39558 0 0-46.080501Z" p-id="2718" fill="#707070"></path><path d="M246.401388 387.891378l692.39558 0 0 46.081525-692.39558 0 0-46.081525Z" p-id="2719" fill="#707070"></path><path d="M246.401388 180.618661l692.39558 0 0 46.057989-692.39558 0 0-46.057989Z" p-id="2720" fill="#707070"></path><path d="M86.874091 802.460348l99.939153 0 0 46.057989-99.939153 0 0-46.057989Z" p-id="2721" fill="#707070"></path><path d="M86.874091 595.165118l99.939153 0 0 46.080501-99.939153 0 0-46.080501Z" p-id="2722" fill="#707070"></path><path d="M86.874091 387.891378l99.939153 0 0 46.081525-99.939153 0 0-46.081525Z" p-id="2723" fill="#707070"></path><path d="M86.874091 180.618661l99.939153 0 0 46.057989-99.939153 0 0-46.057989Z" p-id="2724" fill="#707070"></path></svg>