<?xml version="1.0" standalone="no"?><!DOCTYPE svg PUBLIC "-//W3C//DTD SVG 1.1//EN" "http://www.w3.org/Graphics/SVG/1.1/DTD/svg11.dtd"><svg t="1576912100233" class="icon" viewBox="0 0 1024 1024" version="1.1" xmlns="http://www.w3.org/2000/svg" p-id="2562" xmlns:xlink="http://www.w3.org/1999/xlink" width="200" height="200"><defs><style type="text/css"></style></defs><path d="M542.72 645.137067c-8.533333 8.533333-18.773333 12.8-30.72 12.8s-21.896533-4.266667-29.866667-12.8c-8.533333-7.970133-12.8-17.937067-12.8-29.866667 0-11.963733 4.266667-22.203733 12.8-30.737067 7.970133-7.970133 17.92-11.9296 29.866667-11.9296s22.186667 3.959467 30.72 11.9296c7.9872 8.533333 11.946667 18.773333 11.946667 30.737067 0 11.9296-3.959467 21.896533-11.946667 29.866667z m-73.386667-157.883734c0-11.946667 4.266667-22.186667 12.8-30.72 7.970133-7.970133 17.92-11.946667 29.866667-11.946666s22.186667 3.976533 30.72 11.946666c7.9872 8.533333 11.946667 18.773333 11.946667 30.72s-3.959467 21.896533-11.946667 29.866667c-8.533333 8.533333-18.773333 12.8-30.72 12.8s-21.896533-4.266667-29.866667-12.8c-8.533333-7.970133-12.8-17.92-12.8-29.866667z m73.386667-98.133333c-8.533333 8.533333-18.773333 12.8-30.72 12.8s-21.896533-4.266667-29.866667-12.8c-8.533333-7.970133-12.8-17.92-12.8-29.866667s4.266667-22.186667 12.8-30.72c7.970133-7.970133 17.92-11.946667 29.866667-11.946666s22.186667 3.976533 30.72 11.946666c7.9872 8.533333 11.946667 18.773333 11.946667 30.72s-3.959467 21.896533-11.946667 29.866667z m0-128c-8.533333 8.533333-18.773333 12.8-30.72 12.8s-21.896533-4.266667-29.866667-12.8c-8.533333-7.970133-12.8-17.92-12.8-29.866667s4.266667-22.186667 12.8-30.72c7.970133-7.970133 17.92-11.946667 29.866667-11.946666s22.186667 3.976533 30.72 11.946666c7.9872 8.533333 11.946667 18.773333 11.946667 30.72s-3.959467 21.896533-11.946667 29.866667z m11.946667-157.866667c0 11.946667-3.959467 21.896533-11.946667 29.866667-8.533333 8.533333-18.773333 12.8-30.72 12.8s-21.896533-4.266667-29.866667-12.8c-8.533333-7.970133-12.8-17.92-12.8-29.866667s4.266667-22.186667 12.8-30.72c7.970133-7.970133 17.92-11.946667 29.866667-11.946666s22.186667 3.976533 30.72 11.946666c7.9872 8.533333 11.946667 18.773333 11.946667 30.72zM512 973.6704c-5.307733 0-10.308267-2.474667-13.550933-6.690133l-170.666667-222.737067A17.066667 17.066667 0 0 1 341.333333 716.8h341.333334a17.032533 17.032533 0 1 1 13.533866 27.460267l-170.666666 222.737066a17.066667 17.066667 0 0 1-13.533867 6.673067zM375.9104 750.933333L512 928.529067 648.0896 750.933333H375.9104z" p-id="2563" fill="#ffffff"></path></svg>