<?xml version="1.0" standalone="no"?><!DOCTYPE svg PUBLIC "-//W3C//DTD SVG 1.1//EN" "http://www.w3.org/Graphics/SVG/1.1/DTD/svg11.dtd"><svg t="1576913890029" class="icon" viewBox="0 0 1024 1024" version="1.1" xmlns="http://www.w3.org/2000/svg" p-id="1415" xmlns:xlink="http://www.w3.org/1999/xlink" width="200" height="200"><defs><style type="text/css"></style></defs><path d="M481.28 380.586667c8.533333-8.533333 18.773333-12.8 30.72-12.8s21.896533 4.266667 29.866667 12.8c8.533333 7.970133 12.8 17.92 12.8 29.866666s-4.266667 22.186667-12.8 30.72c-7.970133 7.970133-17.92 11.946667-29.866667 11.946667s-22.186667-3.976533-30.72-11.946667c-7.970133-8.533333-11.946667-18.773333-11.946667-30.72s3.976533-21.896533 11.946667-29.866666z m73.386667 157.866666c0 11.946667-4.266667 22.186667-12.8 30.72-7.970133 7.970133-17.92 11.946667-29.866667 11.946667s-22.186667-3.976533-30.72-11.946667c-7.970133-8.533333-11.946667-18.773333-11.946667-30.72s3.976533-21.896533 11.946667-29.866666c8.533333-8.533333 18.773333-12.8 30.72-12.8s21.896533 4.266667 29.866667 12.8c8.533333 7.970133 12.8 17.92 12.8 29.866666z m-73.386667 98.133334c8.533333-8.533333 18.773333-12.8 30.72-12.8s21.896533 4.266667 29.866667 12.8c8.533333 7.9872 12.8 17.92 12.8 29.866666s-4.266667 22.186667-12.8 30.72c-7.970133 7.970133-17.92 11.946667-29.866667 11.946667s-22.186667-3.976533-30.72-11.946667c-7.970133-8.533333-11.946667-18.773333-11.946667-30.72s3.976533-21.879467 11.946667-29.866666z m0 128c8.533333-8.533333 18.773333-12.8 30.72-12.8s21.896533 4.266667 29.866667 12.8c8.533333 7.9872 12.8 17.92 12.8 29.866666s-4.266667 22.186667-12.8 30.72c-7.970133 7.970133-17.92 11.946667-29.866667 11.946667s-22.186667-3.976533-30.72-11.946667c-7.970133-8.533333-11.946667-18.773333-11.946667-30.72s3.976533-21.879467 11.946667-29.866666z m-11.946667 157.866666c0-11.946667 3.976533-21.879467 11.946667-29.866666 8.533333-8.533333 18.773333-12.8 30.72-12.8s21.896533 4.266667 29.866667 12.8c8.533333 7.9872 12.8 17.92 12.8 29.866666s-4.266667 22.186667-12.8 30.72c-7.970133 7.970133-17.92 11.946667-29.866667 11.946667s-22.186667-3.976533-30.72-11.946667c-7.970133-8.533333-11.946667-18.773333-11.946667-30.72zM682.666667 308.906667H341.333333a17.066667 17.066667 0 0 1-13.550933-27.460267l170.666667-222.72c6.468267-8.413867 20.6336-8.413867 27.101866 0l170.666667 222.72A17.1008 17.1008 0 0 1 682.666667 308.906667z m-306.756267-34.133334h272.1792L512 97.1776 375.9104 274.773333z" p-id="1416" fill="#ffffff"></path></svg>